<svg xmlns="http://www.w3.org/2000/svg" viewBox="0 0 980.22 703.05"><defs><style>.cls-1{fill:#f2f2f2;}.cls-2{fill:#3f3d56;}.cls-3{fill:none;stroke:#3f3d56;stroke-miterlimit:10;stroke-width:2px;}.cls-4{fill:#f09a0e;}.cls-5{fill:#071729;}.cls-6{fill:#e6e8ec;}.cls-7{fill:#fff;}.cls-8{fill:#ff6584;}.cls-12,.cls-9{opacity:0.1;}.cls-9{isolation:isolate;}.cls-10{fill:#2f2e41;}.cls-11{fill:#efb7b9;}.cls-13{fill:#a1616a;}.cls-14{fill:#d0cde1;}.cls-15{fill:#104767;}.cls-16{fill:#09283f;}.cls-17{fill:#ef9920;}.cls-18{fill:#c0762a;}.cls-19{fill:#de8d26;}</style></defs><title>social_influencer_2</title><g id="Layer_2" data-name="Layer 2"><g id="f622ef11-673b-443b-b2c3-35d70219ab5c"><path class="cls-1" d="M980.22,423c0,122.84-73,165.73-163.11,165.73S654,545.79,654,423,817.11,143.84,817.11,143.84,980.22,300.11,980.22,423Z"/><polygon class="cls-2" points="811.17 569.89 812.84 467.08 882.36 339.9 813.1 450.96 813.85 404.73 861.76 312.71 814.05 392.5 814.05 392.5 815.4 309.36 866.71 236.1 815.61 296.29 816.46 143.84 811.15 345.65 811.59 337.32 759.42 257.48 810.75 353.31 805.89 446.16 805.75 443.69 745.61 359.67 805.56 452.4 804.96 464.01 804.85 464.19 804.9 465.14 792.57 700.71 809.04 700.71 811.02 579.03 870.83 486.53 811.17 569.89"/><path class="cls-1" d="M88.22,626.46c0,33.22-19.75,44.82-44.11,44.82S0,659.68,0,626.46,44.11,551,44.11,551,88.22,593.24,88.22,626.46Z"/><polygon class="cls-2" points="42.5 666.19 42.95 638.39 61.75 604 43.02 634.03 43.23 621.53 56.18 596.65 43.28 618.22 43.28 618.22 43.65 595.74 57.52 575.93 43.7 592.21 43.93 550.98 42.5 605.55 42.62 603.3 28.51 581.71 42.39 607.63 41.08 632.73 41.04 632.07 24.77 609.35 40.99 634.42 40.82 637.56 40.79 637.61 40.81 637.87 37.47 701.57 41.93 701.57 42.46 668.67 58.63 643.65 42.5 666.19"/><line class="cls-3" x1="6.22" y1="701.69" x2="894.22" y2="701.69"/><path class="cls-4" d="M894.69,671.8c0,22.47-13.36,30.31-29.83,30.31h-1.15c-.76,0-1.52-.05-2.26-.1-14.87-1.06-26.43-9.31-26.43-30.2,0-21.63,27.64-48.91,29.71-50.93h0l.12-.11S894.69,649.33,894.69,671.8Z"/><path class="cls-2" d="M863.77,698.67l10.91-15.24-10.94,16.92,0,1.75c-.76,0-1.52-.05-2.26-.1l1.17-22.48v-.18l0,0,.11-2.12-11-17,11,15.37,0,.45.89-17-9.39-17.53,9.51,14.55.92-35.21v0l-.16,27.77,9.35-11L864.54,651l-.24,15.21,8.72-14.6-8.76,16.84-.14,8.45,12.67-20.31-12.72,23.26Z"/><rect class="cls-2" x="568.57" y="159.1" width="10.31" height="85.02" rx="2.29" ry="2.29"/><rect class="cls-2" x="225.76" y="92.5" width="5.79" height="27.99" rx="1.5" ry="1.5"/><rect class="cls-2" x="225.55" y="143.74" width="6.52" height="48.72" rx="1.69" ry="1.69"/><rect class="cls-2" x="225.65" y="209.5" width="6.21" height="49.14" rx="1.61" ry="1.61"/><rect class="cls-5" x="229.04" width="345.1" height="701.37" rx="35.69" ry="35.69"/><rect class="cls-6" x="368.3" y="20.94" width="48.19" height="9.79" rx="2.54" ry="2.54"/><circle class="cls-6" cx="429.33" cy="25.84" r="5.55"/><path class="cls-7" d="M552.83,45.68v610a27.41,27.41,0,0,1-27.41,27.4H277.76a27.4,27.4,0,0,1-27.41-27.4v-610a27.41,27.41,0,0,1,27.4-27.41h37.07V23A22.57,22.57,0,0,0,337.39,45.6h126A22.57,22.57,0,0,0,485.91,23V18.27h39.51a27.41,27.41,0,0,1,27.41,27.41Z"/><rect class="cls-1" x="250" y="159.69" width="303" height="348"/><path class="cls-8" d="M272,555.84l-1.6-1.44c-5.66-5.2-9.4-8.58-9.4-12.78a6,6,0,0,1,5.87-6.09h.18a6.5,6.5,0,0,1,4.95,2.33,6.5,6.5,0,0,1,4.95-2.33,6,6,0,0,1,6.05,5.92v.17c0,4.2-3.74,7.58-9.41,12.78Z"/><path class="cls-1" d="M329.83,550.52l3.08.88A10.4,10.4,0,0,1,346.14,545a10.18,10.18,0,0,1,3.31,1.88l-4.71,4.56H356.5V540l-4.74,4.54a13.63,13.63,0,0,0-21.93,6Z"/><circle class="cls-4" cx="270" cy="119.69" r="14"/><rect class="cls-4" x="295" y="111.69" width="130" height="16"/><rect class="cls-1" x="261" y="579.69" width="130" height="16"/><rect class="cls-1" x="261" y="614.57" width="275" height="16"/><path class="cls-1" d="M317,554.83l-3.45-6a8.88,8.88,0,1,0-3.08,3.85Z"/><path class="cls-4" d="M72.74,410.71l-1,7.89c-.34,2.67-.69,5.35-.87,8-.62,8.94.53,17.91.23,26.87-.24,6.89-1.34,13.78-.81,20.66.47,6.09,2.21,12,3.93,17.85l2.46,8.36a1.64,1.64,0,0,0,1.76,1.5,1.58,1.58,0,0,0,.42-.09l10.89-1c-.7-3.2-1.47-6.53-1.85-9.78-.29-2.57-.47-5.16-.66-7.74-.58-8-1.23-16.09-1.89-24.13L84.17,445c-.5-6.13-1-12.3-2.55-18.25A36.47,36.47,0,0,0,72.74,410.71Z"/><path class="cls-9" d="M72.74,410.71l-1,7.89c-.34,2.67-.69,5.35-.87,8-.62,8.94.53,17.91.23,26.87-.24,6.89-1.34,13.78-.81,20.66.47,6.09,2.21,12,3.93,17.85l2.46,8.36a1.64,1.64,0,0,0,1.76,1.5,1.58,1.58,0,0,0,.42-.09l10.89-1c-.7-3.2-1.47-6.53-1.85-9.78-.29-2.57-.47-5.16-.66-7.74-.58-8-1.23-16.09-1.89-24.13L84.17,445c-.5-6.13-1-12.3-2.55-18.25A36.47,36.47,0,0,0,72.74,410.71Z"/><path class="cls-2" d="M92.14,681.3a32.39,32.39,0,0,0-1.67,3.88c-1.25,3.68-1.44,7.61-1.62,11.48a5.6,5.6,0,0,0,.2,2.23c.54,1.39,2.08,2.1,3.52,2.48,6,1.63,12.39.1,18.62-.46s12.32-.15,18.31-1.5a8.85,8.85,0,0,0,2.53-.88,7.8,7.8,0,0,0,3.2-4.18,5.06,5.06,0,0,0,.37-1.37c.2-2-1.58-3.81-3.52-4.48s-4-.56-6.07-.77a19.15,19.15,0,0,1-17-16c-.08-.45-10.08-.18-11.13.39-1.23.68-2,2.37-2.67,3.51Q93.58,678.4,92.14,681.3Z"/><path class="cls-9" d="M92.14,681.3a32.39,32.39,0,0,0-1.67,3.88c-1.25,3.68-1.44,7.61-1.62,11.48a5.6,5.6,0,0,0,.2,2.23c.54,1.39,2.08,2.1,3.52,2.48,6,1.63,12.39.1,18.62-.46s12.32-.15,18.31-1.5a8.85,8.85,0,0,0,2.53-.88,7.8,7.8,0,0,0,3.2-4.18,5.06,5.06,0,0,0,.37-1.37c.2-2-1.58-3.81-3.52-4.48s-4-.56-6.07-.77a19.15,19.15,0,0,1-17-16c-.08-.45-10.08-.18-11.13.39-1.23.68-2,2.37-2.67,3.51Q93.58,678.4,92.14,681.3Z"/><path class="cls-2" d="M108.72,682.25a31.71,31.71,0,0,0-1.67,3.88c-1.25,3.67-1.44,7.61-1.62,11.48a5.6,5.6,0,0,0,.21,2.23c.53,1.39,2.07,2.09,3.51,2.48,6,1.62,12.4.1,18.62-.46s12.33-.15,18.31-1.5a8.74,8.74,0,0,0,2.53-.88,7.87,7.87,0,0,0,3.21-4.18,5.4,5.4,0,0,0,.36-1.38c.2-2-1.58-3.81-3.51-4.48s-4-.56-6.08-.77a19.14,19.14,0,0,1-17-16c-.08-.45-10.08-.19-11.13.39-1.23.68-2,2.36-2.67,3.5C110.72,678.43,109.68,680.31,108.72,682.25Z"/><path class="cls-10" d="M152,583.53c.13,20.09-5.71,39.71-12.56,58.59q-4.07,11.21-8.64,22.22c-1.8,4.36-3.83,9.18-1.9,13.48-5.55-2.12-11.24-3.36-17.11-2.39,2.23-4.55,2-9.85,2.12-14.91A130.63,130.63,0,0,1,116.1,640a113.74,113.74,0,0,1,10-29.63,22.4,22.4,0,0,0,1.94-6.24,39.55,39.55,0,0,0-.83-14.42,86,86,0,0,0-12-29.37l-.06.6a85.92,85.92,0,0,1-1.51,8.89c-1.31,6.22-2.84,12.45-2.61,18.7a99.65,99.65,0,0,1-1.23,19.82,29.47,29.47,0,0,1-2,7.5c-.64,1.43-1.48,2.79-2,4.28a19.74,19.74,0,0,0-.78,5.29c-.75,15.12,0,34.47,3.08,49.3a28.84,28.84,0,0,0-15,3.41c-3.73-10.54-6.11-25.52-7.89-36.62a108.14,108.14,0,0,1,1.21-39.45,52.83,52.83,0,0,0,1-13.16c-.4-8.78-2.56-17.37-4.7-25.89l-3.27-13q-2.33-9.25-4.66-18.5c-1-4.1-2.08-8.29-1.75-12.51a31.09,31.09,0,0,1,1.44-6.8,76.45,76.45,0,0,1,10.29-21c17.91,1,36-.67,53.91-2.05a2.69,2.69,0,0,1,3.55,2.74L149,530A95.4,95.4,0,0,1,150.92,546c0,5.39-.84,10.76-.64,16.14C150.55,569.42,151.92,576.28,152,583.53Z"/><path class="cls-9" d="M115.19,561a85.92,85.92,0,0,1-1.51,8.89c-3.89-6.73-8.09-13.3-11.67-20.21-.93-1.77-1.81-3.58-2.69-5.38l-2.64-5.39c-.5-1-1-2-1.44-3.06a22.23,22.23,0,0,1-1.67-4.67c1.31-.24,4.52,3.27,5.49,4.19a72.93,72.93,0,0,1,5.6,6.18,67.09,67.09,0,0,1,5.81,7.61A37.05,37.05,0,0,1,115.19,561Z"/><path class="cls-11" d="M130.11,376.11s-10,15.85-8.11,19.17-31.32-2.95-31.32-2.95,18.06-15.85,16.22-22.48S130.11,376.11,130.11,376.11Z"/><circle class="cls-11" cx="121.27" cy="358.43" r="22.48" transform="translate(-244.85 453.98) rotate(-85.93)"/><path class="cls-4" d="M130.44,392.73A22.87,22.87,0,0,0,121,385.1a34.29,34.29,0,0,0-6.71-1.66l-9-1.57c-2.2-.39-4.55-.76-6.59.15a10.91,10.91,0,0,0-2.81,2.05c-3.12,2.89-6.14,6.06-10,7.73-1.07.46-2.19.79-3.26,1.25-4.37,1.88-7.64,5.81-9.5,10.2-2,4.59-2,9.58-1.85,14.57a25.28,25.28,0,0,0,.5,5.13,35.15,35.15,0,0,0,1.71,4.7,87.09,87.09,0,0,1,3.1,10q3.48,13.33,5.8,26.95a10,10,0,0,0,1.13,3.73,13.1,13.1,0,0,0,3.1,3,20.29,20.29,0,0,1,2.59,2.57,3.34,3.34,0,0,1,.82,1.42c.3,1.34-.89,2.49-1.85,3.47a16.75,16.75,0,0,0-4.2,7.31,2.91,2.91,0,0,0-.67,2,3.33,3.33,0,0,1,.21,1.59,3.59,3.59,0,0,1-.84,1.32,5,5,0,0,0-.94,4,63.15,63.15,0,0,0,22,5.15c1.85.09,3.72.09,5.56.32,1.32.16,2.62.44,3.94.59a42.73,42.73,0,0,0,5.77.15c10-.2,20.3-.46,29.48-4.42.87-4.72-1-9.52-2.16-14.16-1.86-7.39-2.33-15.05-3.72-22.55-.94-5.12-2.32-10.17-3.11-15.32s-1-10.5.45-15.52c1.25-4.45,1.63-9,2.93-13.41s2.22-9.24.75-13.62C141.8,396.73,136.17,392.43,130.44,392.73Z"/><path class="cls-10" d="M141.48,346.51c1.1-4-1-8.14-3.63-11.39-2.76-3.48-6.33-6.62-10.69-7.5-3.54-.71-7.21.15-10.81-.14-3.2-.25-6.26-1.39-9.43-1.81a30.37,30.37,0,0,0-8.62.33,32.14,32.14,0,0,0-7.86,2.2c-9.56,4.24-15.17,14.71-16.47,25.09s1,20.85,3.25,31.06l2,9.24c2.13,9.61,4.27,19.27,4.84,29.1s-.49,19.92-4.54,28.9a62.11,62.11,0,0,0,28.56-32.33c1.45-3.8,2.53-7.75,4.14-11.48,1.39-3.22,3.16-6.27,4.39-9.54a31.22,31.22,0,0,0,2-11.6c-.07-3-.57-5.93-.48-8.9s.84-6.07,2.89-8.22c1.83-1.91,4.42-2.83,6.78-4a28.09,28.09,0,0,0,9.46-7.9c1.48-1.93,1.56-2.75,1.94-5S140.91,348.61,141.48,346.51Z"/><path class="cls-11" d="M141.51,515.37c.23,2.31-.19,4.68.32,7,.38,1.7,1.26,3.25,1.78,4.91a23.65,23.65,0,0,1,.79,5.92c.07,1.68-.06,3.72-1.54,4.5-.65.35-1.43.35-2.11.64s-1.26,1.11-.87,1.74,1.07.53,1.67.66,1.28.75.93,1.26a1,1,0,0,1-.54.34,6.42,6.42,0,0,0-1.75.84,1.77,1.77,0,0,0-.71,1.69,1,1,0,0,0,1.26.78.92.92,0,0,0,.23-.09,4.6,4.6,0,0,0-.43,1.86c2.37,1,5-.32,7.27-1.61a28.26,28.26,0,0,0,2.8-1.79A13.9,13.9,0,0,0,156,532.11a25.94,25.94,0,0,0-.52-3.39,51.31,51.31,0,0,0-1.37-5.76c-.64-2-1.51-3.91-2.27-5.87-1.6-4.17-2.63-8.54-4.07-12.77a1.49,1.49,0,0,0-1.62-1.32l-.11,0a16.75,16.75,0,0,0-4.84.44c-1,.28-2.53.9-3,1.9s.26,1.71.67,2.49A20.54,20.54,0,0,1,141.51,515.37Z"/><path class="cls-9" d="M140,402.45a6.72,6.72,0,0,1,1.19,1.66c3.2,5.8,3.24,12.75,3.39,19.37.17,7.46.57,14.9,1,22.35l1.22,22.27c.12,2.13.24,4.26.53,6.37,1.44.36,1.5,2.21,1.33,3.68-1,9.09-3.58,18.45-.9,27.19a2.64,2.64,0,0,0,.62,1.21,7.24,7.24,0,0,0-4.15-.05c-1.34.28-2.62.77-3.95,1.07-1.69.38-3.61.55-4.76,1.84a90.11,90.11,0,0,1-3.11-12c-.64-3.69-.81-7.54-2.32-11-.61-1.38-1.42-2.67-2.16-4-3.9-6.95-5.81-14.81-7.68-22.56a32.77,32.77,0,0,1-.59-11.21,40.54,40.54,0,0,0,.46-5.16,43,43,0,0,0-.71-5.42,36.43,36.43,0,0,1,1.08-15.71c1.4-4.74,2.62-9.71,5.55-13.69S135.06,402.52,140,402.45Z"/><path class="cls-4" d="M141.1,401.71a6.72,6.72,0,0,1,1.19,1.66c3.19,5.8,3.23,12.75,3.38,19.37.17,7.46.58,14.91,1,22.35l1.22,22.27c.12,2.13.23,4.26.53,6.37,1.44.36,1.5,2.22,1.33,3.69-1,9.08-3.59,18.44-.91,27.18a2.75,2.75,0,0,0,.63,1.22,7.19,7.19,0,0,0-4.16-.06c-1.33.28-2.61.77-3.94,1.07-1.7.39-3.61.55-4.77,1.85a93.69,93.69,0,0,1-3.11-12c-.63-3.7-.81-7.55-2.31-11-.61-1.39-1.42-2.68-2.16-4-3.91-6.95-5.82-14.81-7.68-22.56a33,33,0,0,1-.6-11.21,40.4,40.4,0,0,0,.47-5.15,41.17,41.17,0,0,0-.72-5.43,36.45,36.45,0,0,1,1.08-15.71c1.4-4.73,2.63-9.71,5.55-13.69S136.16,401.78,141.1,401.71Z"/><g class="cls-12"><path d="M137.85,335.12c-2.76-3.48-6.33-6.62-10.69-7.5-3.54-.71-7.21.15-10.81-.14-3.2-.25-6.26-1.39-9.43-1.81a30.37,30.37,0,0,0-8.62.33,32.14,32.14,0,0,0-7.86,2.2,23.06,23.06,0,0,0-3.87,2.19,33.92,33.92,0,0,1,6.94-1.81,30.37,30.37,0,0,1,8.62-.33c3.17.41,6.23,1.56,9.43,1.81,3.6.29,7.27-.57,10.81.14,4.36.88,7.93,4,10.69,7.5,2.58,3.25,4.73,7.4,3.63,11.39-.57,2.1-1.91,3.94-2.27,6.1s-.46,3.05-1.94,5a28.25,28.25,0,0,1-6.82,6.36c.72-.34,1.44-.68,2.15-1a28.09,28.09,0,0,0,9.46-7.9c1.48-1.93,1.56-2.75,1.94-5s1.7-4,2.27-6.1C142.58,342.52,140.43,338.37,137.85,335.12Z"/><path d="M121,369.52a10.05,10.05,0,0,1,1.26-1.09c-2.15,1-4.41,2-6.05,3.67-2,2.15-2.81,5.25-2.89,8.22s.41,5.93.48,8.9a31.13,31.13,0,0,1-2,11.59c-1.23,3.28-3,6.33-4.39,9.55-1.61,3.73-2.69,7.68-4.14,11.48a62.2,62.2,0,0,1-23.61,29.38c0,.12-.1.25-.16.37a62.11,62.11,0,0,0,28.56-32.33c1.45-3.8,2.53-7.75,4.14-11.48,1.39-3.22,3.16-6.27,4.39-9.54a31.22,31.22,0,0,0,2-11.6c-.07-3-.57-5.93-.48-8.9S119,371.67,121,369.52Z"/></g><path class="cls-10" d="M614.67,699.89c-1.07,1.29-2.91,1.55-4.56,1.72a26,26,0,0,1-6.47.12c-2.56-.38-4.09,1.07-6.42,0-1.42-.68-3.59.67-5,0-1.94-.93-8.63-1.12-9.81-2.93s-1-4.67.81-5.74a11.93,11.93,0,0,1,1.63-.63c3.12-1.25,9.45-10.62,12.77-11.09a8.76,8.76,0,0,1,4.72,1.11c3.27,1.45,9,2.6,10.48,6.29C613.94,691.57,617,697.08,614.67,699.89Z"/><path class="cls-10" d="M638.18,699.15c1.07,1.29,2.91,1.55,4.56,1.72a26,26,0,0,0,6.47.12c2.56-.38,5.67,1.81,8,.7,1.41-.68,3.58-.33,5-1,1.93-.93,11,1.14,12.22-.67s1.06-4.67-.81-5.74a13.44,13.44,0,0,0-1.63-.64c-3.12-1.24-13.44-12.61-16.77-13.09a8.86,8.86,0,0,0-4.72,1.12c-3.27,1.45-9,2.6-10.48,6.29C638.92,690.83,635.87,696.34,638.18,699.15Z"/><path class="cls-10" d="M648.53,495A52.12,52.12,0,0,1,651.2,501c9.08,24,9.84,50.26,10.21,75.93a96.67,96.67,0,0,0,.72,12.49c.38,2.62,1,5.28.59,7.91-.33,2.27-1.4,4.51-1,6.76.19,1,.68,2,.87,3a10.4,10.4,0,0,1-.09,3.34l-1.22,9.05c-.69,5.16-2.29,10.13-2.2,15.33.06,3.55.12,7.11.51,10.64s1.15,7.14,1.19,10.74c0,2.7-.34,5.39-.58,8.08a82.11,82.11,0,0,0-.23,11.42c.14,2.93.48,6,2,8.47-1.74,2.5-3.46,4.74-6.26,6-5.67,2.49-12.18,1.65-18.3.76.33-1.13.86-2.42.37-3.49a7,7,0,0,0-1.05-1.43,16.86,16.86,0,0,1-2.73-6.35c-.74-2.7-1.48-5.61,0-8.2a5.24,5.24,0,0,0,.66-3c-1.26-17-5-34.64-1.56-51.34.37-1.79.81-3.56,1-5.37a63.77,63.77,0,0,0,.09-7.82l-.07-3.63c-.18-3.87,0-7.84-.8-11.67-.56-2.75-1.6-5.5-.32-8.3a4.54,4.54,0,0,0-.19-4,74,74,0,0,1-6.45-14.9,26.61,26.61,0,0,0-1.36-4.25,30.14,30.14,0,0,0-2.69-4.13c-3-4.4-4.85-9.51-6.63-14.56.19-.46,0-1.1-.45-1a1.9,1.9,0,0,0-1.17.88c-2.45,3.28-2.65,7.66-2.76,11.75a86.74,86.74,0,0,0,.19,11.4c.21,2,.56,4,.74,5.95a71.42,71.42,0,0,1-.18,11.14l-1.25,18.23a13.18,13.18,0,0,0,.27,4.51,25.39,25.39,0,0,1,1.16,7.89,142.27,142.27,0,0,0,2.83,32.81c.61,3,1.32,5.94,1.83,8.93,1.22,7.06,1.39,14.26,1.55,21.42.1,4.4.17,9-1.56,13a14.73,14.73,0,0,0-1.48,4,8.87,8.87,0,0,1-.28,2.12c-.51,1.31-2,1.87-3.41,2.17a27.75,27.75,0,0,1-7.87.56,4.58,4.58,0,0,1-1.79-.4c-1-.51-1.51-1.59-2.25-2.4-1.62-1.77-4.3-2.31-5.77-4.19-1.83-2.35-1.06-5.76,0-8.54s2.45-5.79,1.51-8.63c-1.11-3.34-5-5.14-6.1-8.49,3-13.54-4.38-27.54-3.75-41.4.15-3.22.71-6.43.72-9.66,0-8.32-3.58-16.41-3-24.71,1.5-21.1-5.68-42.15-8.72-63.08a41.23,41.23,0,0,1-.65-9.48c.46-5.23,2.89-10.11,5.81-14.48,2.1-3.13,4.62-6.19,8.09-7.66,2.85-1.2,6.06-1.2,9.16-1.17,7.74.06,15.48.12,23.22.26a75.83,75.83,0,0,1,15.69,1.4C640.36,492.39,644.27,494.34,648.53,495Z"/><path class="cls-13" d="M523.48,398.79c-.75-3.67.67-7.59-.44-11.17-.4-1.29-1.38-2.63-2.73-2.59s-2.2,1.32-3.36,1.93c-1.88,1-4.15.09-6-.89s-4-2.1-6-1.51c-.24,1.27.62,2.49,1.55,3.38a9.07,9.07,0,0,1,2.52,2.92,12.54,12.54,0,0,1,.34,3.76c.21,2.91,2.06,5.41,3.89,7.67a137.56,137.56,0,0,0,9.43,10.46s5-6.24,4.94-7.33-1.79-2-2.4-2.82A9.61,9.61,0,0,1,523.48,398.79Z"/><path class="cls-13" d="M673.54,475.59a19.65,19.65,0,0,1,1,3.6c1.3,6.31,2.11,12.69,2.92,19.08.22,1.7.43,3.41.5,5.12a23.48,23.48,0,0,1-2.43,11.79,16.46,16.46,0,0,1-8.84,8c-1.18.42-2.83.5-3.34-.65a2.4,2.4,0,0,1,0-1.63c.47-1.7,1.41-3.22,2-4.87a13.26,13.26,0,0,0,.44-7.71c-.25-1-.76-2.06-1.74-2.26a8.8,8.8,0,0,1-1.16,6.56,2.31,2.31,0,0,1-1.35,1.14,1.8,1.8,0,0,1-1.89-1.23,5.22,5.22,0,0,1-.16-2.42,81.74,81.74,0,0,1,1.87-12.16c1.1-4.39,2.84-8.73,2.73-13.25-.1-4.1-1.73-8.13-1.28-12.21a1,1,0,0,1,.75-1,24.21,24.21,0,0,1,3.52-1.17c.71-.18,3.14-1,3.82-.64s.72,2.13,1,2.75C672.43,473.47,673.08,474.49,673.54,475.59Z"/><circle class="cls-13" cx="592.61" cy="337.35" r="16.75"/><path class="cls-13" d="M607.61,349.47a20,20,0,0,0,.26,3.18,24.71,24.71,0,0,0,3.32,7.72,6.91,6.91,0,0,0,4.24,2.76,120.54,120.54,0,0,1-36.21,10.47,15.4,15.4,0,0,0,4.8-5.13,14.55,14.55,0,0,0,1.27-4.18,35,35,0,0,0-1.57-18.06c-.21-.57-.41-1.27,0-1.73a1.79,1.79,0,0,1,.59-.39A37.49,37.49,0,0,1,600,341.18c1.38,0,2.76.07,4.13.17.74,0,2.38-.1,3,.44s.35,2.65.37,3.53Z"/><path class="cls-14" d="M616.47,361.65A17.9,17.9,0,0,0,595,356.31c-8,3.8-11.9,12.94-18.91,18.32a33.13,33.13,0,0,1-5.08,3.12,14.2,14.2,0,0,1-3.34,1.33c-1.31.28-2.68.24-4,.56a10.23,10.23,0,0,0-5.93,4.6,32.16,32.16,0,0,1-2.18,3.36c-.73.87-1.64,1.57-2.42,2.41-2.78,3-3.54,7.29-4.18,11.33a53.7,53.7,0,0,1-7.11,6.28,9.88,9.88,0,0,1-2.64,1.46c-2.45.79-5.16-.22-7.25-1.73s-3.79-3.5-5.85-5.05c-1.9,2.71-3.88,5.43-5.89,8a2.6,2.6,0,0,1-1.32,1.08c-.38,1.28.53,2.6,1.21,3.74l3.65,6.14a30.55,30.55,0,0,0,4.41,6.17,10.26,10.26,0,0,0,6.68,3.25,13.41,13.41,0,0,0,4.72-.9c7-2.34,13.34-6.07,20-9.25a8.9,8.9,0,0,1,3.92-1.15,3.15,3.15,0,0,1,3.1,2.23c.76,3.83,1.52,7.65,2.56,11.42q1.47,5.32,2.74,10.71a46.11,46.11,0,0,1,1.21,6.68c.11,1.29.12,2.57.13,3.86l.14,15.52c0,1.67-.94,2.72-1.67,4.22a10,10,0,0,0-.47,7.46c.41,1.21,1.06,2.33,1.51,3.52,1.11,2.89,1.06,6.07,1,9.17l-.14,7.08a1.48,1.48,0,0,0,.16.85c.43.68,1.47.28,2.13-.17l3.31-2.3a75.81,75.81,0,0,0,13.38.65c12.72-.19,25.43.32,38.12,1.21,4.23.29,8.61.62,12.61-.8,2-.71,3.9-1.86,6-2.43a5.52,5.52,0,0,0,2.37-1c1.16-1.07.86-3,.38-4.47q-.62-2-1.41-3.9a23.74,23.74,0,0,1-1.32-3.65c-.64-2.83,0-6.09-1.78-8.39-3.93-5.15-1.15-13.08-2.8-19.35-.53-2-1.32-4-1.83-6-.31-1.28-.51-2.58-.71-3.89a46.9,46.9,0,0,1-.77-8.53c0-1.44.23-2.86.41-4.28L643.1,425a30.91,30.91,0,0,1,3.22,9.34,138.68,138.68,0,0,0,4.2,14.4c1,2.85,1.89,5.7,2.91,8.52a28.68,28.68,0,0,1,1.48,5c.23,1.37.24,2.76.39,4.14a19,19,0,0,0,3,8.27,2.1,2.1,0,0,0,2.65,1.2,48.51,48.51,0,0,0,12.71-4.4,5.05,5.05,0,0,0,2.15-1.67c1.08-1.76-.13-4-.65-6s-.43-4.71-2.12-6.15c-5.86-5-2.95-15.12-5.89-22.24-.51-1.25-1.11-2.46-1.56-3.74-.34-1-.58-2-.83-3q-3.07-12.45-6.58-24.77c-2.42-8.52-2.16-17.4-5.21-25.71a27.86,27.86,0,0,0-2.24-5,13.59,13.59,0,0,0-4-4.16c-4.43-2.93-8.9-5.42-14.1-6.48S621.78,361.63,616.47,361.65Z"/><path class="cls-10" d="M577.39,341.45c-2.25-1.22-1.66-4.51-2-7-.79-5.2-6.67-8.29-8.05-13.36a9.1,9.1,0,0,0,4.67-.66,7.13,7.13,0,0,0-.94-4.88c4.83-2,8.74-5.82,13.65-7.59,6.17-2.22,13.05-.86,19.28,1.21,3.1,1,6.34,2.38,8.22,5.06,2.06,2.94,2,6.82,1.92,10.41-.18,5.64-.4,11.48-2.91,16.53-3.2,6.43-12.24,12.39-19.72,10.65-3.11-.73-4-2.68-5.33-5.38-.82-1.68-1.12-3.63-3-4.51S579.21,342.43,577.39,341.45Z"/><g class="cls-12"><path d="M645.3,461.52c0,.45,0,.89,0,1.35C645.32,462.42,645.3,462,645.3,461.52Z"/><path d="M572.76,478.35c1.11,2.88,1.06,6.07,1,9.16l0,2.42a16.33,16.33,0,0,0-1-4.89c-.45-1.19-1.1-2.31-1.51-3.52a10,10,0,0,1,.07-6.51C571.74,476.15,572.33,477.21,572.76,478.35Z"/></g><g class="cls-12"><path d="M572,318h0a7.13,7.13,0,0,0-.92-2.45l.84-.36A7.14,7.14,0,0,1,572,318Z"/></g><path class="cls-15" d="M488.74,349.47l-21.85,85.95L380,413.32a91.16,91.16,0,0,1-68.64-91.64,122,122,0,0,0,67.1,47.78h0c1,.28,2,.56,3.05.82a122.11,122.11,0,0,0,108-24.23C489.3,347.2,489,348.33,488.74,349.47Z"/><path class="cls-5" d="M488.54,303.28a121.89,121.89,0,0,1-93.54,14c-1-.26-2-.54-3.05-.81l-.06,0A122.17,122.17,0,0,1,370,307.9a76.48,76.48,0,0,1-35.68-85l1.87-7.36,86,21.86a92.19,92.19,0,0,1,66.4,65.84Z"/><path class="cls-16" d="M489.53,346.06a122.11,122.11,0,0,1-108,24.23c-1-.26-2-.54-3.05-.82h0a121.91,121.91,0,0,1-21.91-8.52,76.49,76.49,0,0,1-35.69-85,78.18,78.18,0,0,1,2.88-9,121.77,121.77,0,0,0,68.2,49.4l.06,0c1,.27,2,.55,3.05.81a122.11,122.11,0,0,0,93.54-14A91.39,91.39,0,0,1,489.53,346.06Z"/><path class="cls-17" d="M817.25,69.65l2.48,22.85L842.84,90a23.61,23.61,0,0,0,20.93-21,31.53,31.53,0,0,1-13,8.43,32.21,32.21,0,0,1-5.93,1.39h0l-.81.1a31.66,31.66,0,0,1-26.83-10.14C817.19,69.05,817.22,69.35,817.25,69.65Z"/><path class="cls-18" d="M819,57.81a31.53,31.53,0,0,0,23.49,7l.81-.1h0a31.83,31.83,0,0,0,5.93-1.39,19.81,19.81,0,0,0,12.24-20.5l-.21-1.95L838.4,43.33A23.91,23.91,0,0,0,819,57.81Z"/><path class="cls-19" d="M817.17,68.75A31.66,31.66,0,0,0,844,78.89l.81-.1h0a32.21,32.21,0,0,0,5.93-1.39A19.82,19.82,0,0,0,863,56.9a21.26,21.26,0,0,0-.41-2.41,31.62,31.62,0,0,1-19.3,10.2h0l-.81.1a31.52,31.52,0,0,1-23.49-7A23.63,23.63,0,0,0,817.17,68.75Z"/><path class="cls-17" d="M81.77,275.92l-2.49,22.84-23.1-2.51a23.63,23.63,0,0,1-20.94-21,31.56,31.56,0,0,0,13,8.43,31.24,31.24,0,0,0,5.93,1.39h0l.82.1A31.61,31.61,0,0,0,81.85,275C81.83,275.31,81.8,275.61,81.77,275.92Z"/><path class="cls-18" d="M80,264.07a31.54,31.54,0,0,1-23.49,7l-.81-.1h0a31.42,31.42,0,0,1-5.93-1.39,19.82,19.82,0,0,1-12.24-20.49l.22-2,22.84,2.49A23.89,23.89,0,0,1,80,264.07Z"/><path class="cls-19" d="M81.85,275A31.61,31.61,0,0,1,55,285.15l-.82-.1h0a31.24,31.24,0,0,1-5.93-1.39A19.81,19.81,0,0,1,36,263.16a20.72,20.72,0,0,1,.41-2.4A31.62,31.62,0,0,0,55.72,271h0l.81.1a31.6,31.6,0,0,0,23.49-7A23.76,23.76,0,0,1,81.85,275Z"/></g></g></svg>